<svg width="49" height="49" viewBox="0 0 49 49" fill="none" xmlns="http://www.w3.org/2000/svg">
<rect width="49" height="49" fill="#F5F5F5"/>
<g clip-path="url(#clip0_0_1)">
<rect width="1920" height="5682" transform="translate(-1532 -37)" fill="white"/>
<rect width="1920" height="123" transform="translate(-1532 -37)" fill="white"/>
<circle cx="24.5" cy="24.5" r="24.5" fill="#F9F9F9"/>
<g clip-path="url(#clip1_0_1)">
<g clip-path="url(#clip2_0_1)">
<mask id="path-2-inside-1_0_1" fill="white">
<path d="M30.5 13.917C29.374 13.9345 28.2725 14.2488 27.3068 14.8283C26.3411 15.4077 25.5454 16.2317 25 17.217C24.4546 16.2317 23.6589 15.4077 22.6932 14.8283C21.7275 14.2488 20.6261 13.9345 19.5 13.917C17.7049 13.995 16.0137 14.7802 14.7958 16.1012C13.5779 17.4222 12.9323 19.1715 13 20.967C13 25.514 17.786 30.48 21.8 33.847C22.6962 34.6001 23.8294 35.013 25 35.013C26.1706 35.013 27.3038 34.6001 28.2 33.847C32.214 30.48 37 25.514 37 20.967C37.0678 19.1715 36.4221 17.4222 35.2042 16.1012C33.9863 14.7802 32.2951 13.995 30.5 13.917ZM26.915 32.317C26.379 32.7684 25.7008 33.0159 25 33.0159C24.2993 33.0159 23.621 32.7684 23.085 32.317C17.947 28.006 15 23.87 15 20.967C14.9316 19.7017 15.3664 18.4607 16.2094 17.5147C17.0524 16.5687 18.2352 15.9943 19.5 15.917C20.7648 15.9943 21.9476 16.5687 22.7906 17.5147C23.6336 18.4607 24.0684 19.7017 24 20.967C24 21.2322 24.1054 21.4866 24.2929 21.6741C24.4804 21.8616 24.7348 21.967 25 21.967C25.2652 21.967 25.5196 21.8616 25.7071 21.6741C25.8946 21.4866 26 21.2322 26 20.967C25.9316 19.7017 26.3664 18.4607 27.2094 17.5147C28.0524 16.5687 29.2352 15.9943 30.5 15.917C31.7648 15.9943 32.9476 16.5687 33.7906 17.5147C34.6336 18.4607 35.0684 19.7017 35 20.967C35 23.87 32.053 28.006 26.915 32.313V32.317Z"/>
</mask>
<path d="M30.5 13.917C29.374 13.9345 28.2725 14.2488 27.3068 14.8283C26.3411 15.4077 25.5454 16.2317 25 17.217C24.4546 16.2317 23.6589 15.4077 22.6932 14.8283C21.7275 14.2488 20.6261 13.9345 19.5 13.917C17.7049 13.995 16.0137 14.7802 14.7958 16.1012C13.5779 17.4222 12.9323 19.1715 13 20.967C13 25.514 17.786 30.48 21.8 33.847C22.6962 34.6001 23.8294 35.013 25 35.013C26.1706 35.013 27.3038 34.6001 28.2 33.847C32.214 30.48 37 25.514 37 20.967C37.0678 19.1715 36.4221 17.4222 35.2042 16.1012C33.9863 14.7802 32.2951 13.995 30.5 13.917ZM26.915 32.317C26.379 32.7684 25.7008 33.0159 25 33.0159C24.2993 33.0159 23.621 32.7684 23.085 32.317C17.947 28.006 15 23.87 15 20.967C14.9316 19.7017 15.3664 18.4607 16.2094 17.5147C17.0524 16.5687 18.2352 15.9943 19.5 15.917C20.7648 15.9943 21.9476 16.5687 22.7906 17.5147C23.6336 18.4607 24.0684 19.7017 24 20.967C24 21.2322 24.1054 21.4866 24.2929 21.6741C24.4804 21.8616 24.7348 21.967 25 21.967C25.2652 21.967 25.5196 21.8616 25.7071 21.6741C25.8946 21.4866 26 21.2322 26 20.967C25.9316 19.7017 26.3664 18.4607 27.2094 17.5147C28.0524 16.5687 29.2352 15.9943 30.5 15.917C31.7648 15.9943 32.9476 16.5687 33.7906 17.5147C34.6336 18.4607 35.0684 19.7017 35 20.967C35 23.87 32.053 28.006 26.915 32.313V32.317Z" fill="#292D32" stroke="#F9F9F9" stroke-width="0.6" mask="url(#path-2-inside-1_0_1)"/>
</g>
</g>
</g>
<defs>
<clipPath id="clip0_0_1">
<rect width="1920" height="5682" fill="white" transform="translate(-1532 -37)"/>
</clipPath>
<clipPath id="clip1_0_1">
<rect width="24" height="24" fill="white" transform="translate(13 12)"/>
</clipPath>
<clipPath id="clip2_0_1">
<rect width="24" height="24" fill="white" transform="translate(13 12)"/>
</clipPath>
</defs>
</svg>
